<svg xmlns="http://www.w3.org/2000/svg" viewBox="0 0 750 500"><g id="freepik--background-simple--inject-5"><g><path d="M293.43,43.29c-30.11,3.76-59.14,11.78-84.89,24.35-30.35,14.81-61.36,37.89-52.2,68.08,16.91,55.73,98.02,56.75,81.83,94.22-18.34,42.45-6.04,92.24,76.27,106.08,156.35,26.3,345.35-127.58,292.26-212.13-33.05-52.64-153.41-100.59-313.28-80.6Z" style="fill:#BA68C8;"></path><path d="M293.43,43.29c-30.11,3.76-59.14,11.78-84.89,24.35-30.35,14.81-61.36,37.89-52.2,68.08,16.91,55.73,98.02,56.75,81.83,94.22-18.34,42.45-6.04,92.24,76.27,106.08,156.35,26.3,345.35-127.58,292.26-212.13-33.05-52.64-153.41-100.59-313.28-80.6Z" style="fill:#fff; opacity:.9;"></path></g></g><g id="freepik--Shadow--inject-5"><ellipse cx="375" cy="465.33" rx="315.66" ry="5.16" style="fill:#f5f5f5;"></ellipse></g><g id="freepik--Brain--inject-5"><g><g><path d="M437.49,305.95c-2.07,10.58-13.53,37.1-21.02,44.85-2.15,2.23-5.02,4.43-8.04,3.75-2.16-.49-3.73-2.35-4.8-4.29-2.83-5.09-3.29-11.1-4.21-16.85-2.65-16.61-9.67-32.5-20.15-45.65l43.94-12.96,14.29,31.15Z" style="fill:#BA68C8;"></path><g style="opacity:.3;"><path d="M437.49,305.95c-2.07,10.58-13.53,37.1-21.02,44.85-2.15,2.23-5.02,4.43-8.04,3.75-2.16-.49-3.73-2.35-4.8-4.29-2.83-5.09-3.29-11.1-4.21-16.85-2.65-16.61-9.67-32.5-20.15-45.65l43.94-12.96,14.29,31.15Z"></path></g><path d="M295.14,250.67s-63.3,5.87-61.57-62.96c0,0-9.62-33.94,20.49-45.21,0,0,4.05-28.92,35.86-30.66,0,0,21.98-28.92,61.32-21.4,0,0,34.46-19.11,66.28,.56,0,0,21.07-7.5,32.64,11.01,0,0,41.07-1.16,52.64,34.71,0,0,26.61,8.1,23.72,35.86,0,0,37.55,34.81,15.57,82.82,0,0-14.41,30.56-47.39,32.87,0,0-5.21,30.08-43.38,30.08,0,0-12.32,2.7-23.31-1.13-12.43-4.34-18.32-18.58-13.14-30.68h0s-53.22,5.78-71.15,3.47c-17.93-2.31-43.38-10.99-48.59-39.34Z" style="fill:#BA68C8;"></path><path d="M297,249.6c-.13,0-.23-.09-.25-.22-1.42-12.72,3.72-25.81,13.42-34.16s23.41-11.49,35.78-8.18c.61,.16,1.22,.34,1.84,.52,3.13,.91,6.36,1.84,9.39,.89,2.08-.65,3.8-2.14,5.47-3.58,.24-.21,.48-.41,.72-.62,12.22-10.37,29.55-14.94,45.3-11.97-1.55-9.64,1.76-19.87,8.69-26.76,.1-.1,.26-.1,.35,0,.1,.1,.1,.26,0,.35-6.9,6.86-10.15,17.09-8.49,26.67,.01,.08-.01,.16-.07,.22-.06,.06-.14,.09-.22,.07-15.7-3.08-33.04,1.44-45.24,11.79-.24,.2-.48,.41-.72,.62-1.7,1.47-3.47,2.99-5.64,3.67-3.17,1-6.48,.04-9.68-.88-.61-.18-1.22-.35-1.83-.51-12.21-3.26-25.74-.17-35.32,8.08-9.58,8.24-14.66,21.17-13.25,33.72,.02,.14-.08,.26-.22,.28h-.03Z"></path><path d="M295.83,240.82h-.03c-18.55-2.07-35.13-12.31-43.27-26.71-9.05-16-6.74-37.02,5.36-48.9,.1-.1,.26-.1,.35,0,.1,.1,.09,.26,0,.35-11.95,11.72-14.22,32.48-5.28,48.29,8.07,14.27,24.5,24.41,42.89,26.46,.14,.02,.24,.14,.22,.28-.01,.13-.12,.22-.25,.22Z"></path><path d="M304.26,160.46h0c-10.84-.37-20.81-8.22-23.72-18.67-2.91-10.44,1.57-22.32,10.66-28.24,.12-.07,.27-.04,.35,.07,.08,.12,.04,.27-.07,.35-8.91,5.8-13.3,17.45-10.45,27.69,2.85,10.24,12.63,17.94,23.26,18.3,.14,0,.25,.12,.24,.26,0,.13-.12,.24-.25,.24Z"></path><path d="M357.67,159.21c-.11,0-.21-.07-.24-.18-.04-.13,.04-.27,.18-.31,11.01-3,15.82-13.77,15.7-23.12-.13-10.13-8.27-19.41-17.79-20.27-4.42-.4-9.22,.77-14.65,3.56-.12,.06-.27,.02-.34-.11-.06-.12-.01-.27,.11-.34,5.52-2.84,10.41-4.02,14.92-3.61,9.76,.88,18.12,10.38,18.25,20.76,.12,9.53-4.8,20.53-16.07,23.6-.02,0-.04,0-.07,0Z"></path><path d="M397.74,154.02c-.13,0-.25-.11-.25-.24-.32-8.4,3.91-16.98,10.77-21.84,6.71-4.76,15.94-5.97,23.67-3.14-1.89-5.66-1.19-12.02,1.91-17.12,3.2-5.26,8.75-8.87,14.86-9.65,.13-.02,.26,.08,.28,.22,.02,.14-.08,.26-.22,.28-5.87,.75-11.42,4.36-14.5,9.42-3.07,5.05-3.72,11.65-1.69,17.2,.03,.09,.01,.2-.06,.26-.07,.07-.17,.09-.27,.05-7.67-3.02-16.98-1.89-23.7,2.89-6.72,4.77-10.87,13.18-10.55,21.42,0,.14-.1,.25-.24,.26h0Z"></path><path d="M467.86,184.29h0c-.14,0-.25-.12-.24-.26,.2-7.35-2.61-14.62-7.7-19.93-5.09-5.31-12.23-8.42-19.59-8.53-.14,0-.25-.12-.25-.25,0-.14,.11-.25,.25-.25h0c7.49,.11,14.76,3.28,19.94,8.68,5.18,5.41,8.04,12.8,7.84,20.29,0,.14-.12,.24-.25,.24Z"></path><path d="M492.33,251.57c-1.12,0-2.23-.05-3.35-.14-.14-.01-.24-.13-.23-.27s.14-.23,.27-.23c10.69,.88,21.52-2.56,29.73-9.45,8.21-6.89,13.48-16.97,14.46-27.64,.43-4.69,.18-11.53-3.44-17.53-3.29-5.45-9.07-9.02-14.73-9.1-.08,0-.15-.04-.2-.1-.05-.06-.06-.14-.04-.22,2.64-9.52-.14-20.2-7.09-27.22-6.95-7.02-17.6-9.91-27.15-7.37-.13,.04-.27-.04-.31-.18-.04-.13,.04-.27,.18-.31,9.71-2.59,20.56,.36,27.63,7.5,7,7.07,9.84,17.79,7.3,27.4,5.72,.21,11.51,3.84,14.83,9.33,3.69,6.11,3.95,13.07,3.51,17.83-.99,10.81-6.32,21-14.63,27.98-7.45,6.26-17.04,9.71-26.74,9.71Z"></path><path d="M400.41,114.62h0c-.14,0-.25-.11-.25-.25,.05-5.73,2.2-11.54,5.9-15.93,3.69-4.39,9.05-7.5,14.69-8.53,.13-.02,.27,.07,.29,.2,.02,.14-.07,.27-.2,.29-5.53,1.01-10.78,4.06-14.39,8.36s-5.73,9.99-5.78,15.61c0,.14-.11,.25-.25,.25Z"></path><path d="M389.76,259.29c-3.35,0-6.75-.14-10.19-.44-15.35-1.3-31.4-5.24-52.02-12.79-.13-.05-.2-.19-.15-.32,.05-.13,.19-.19,.32-.15,20.58,7.53,36.59,11.47,51.89,12.76,19.4,1.64,37.43-1.39,52.13-8.75,16.75-8.39,29.47-23.05,34.04-39.22,.04-.13,.17-.21,.31-.17,.13,.04,.21,.18,.17,.31-4.61,16.3-17.43,31.08-34.3,39.53-12.17,6.1-26.61,9.24-42.2,9.24Z"></path><path d="M472.7,240.81c-.08,0-.15-.03-.2-.1-4-5.3-10.58-8.57-17.22-8.57-.06,0-.13,0-.19,0h0c-.14,0-.25-.11-.25-.25,0-.14,.11-.25,.25-.25,.06,0,.13,0,.2,0,6.79,0,13.53,3.35,17.62,8.77,.08,.11,.06,.27-.05,.35-.04,.03-.1,.05-.15,.05Z"></path><path d="M413.62,288.61c-.08,0-.16-.04-.21-.12-.07-.12-.04-.27,.08-.34,16.03-10.13,37.02-12.31,54.79-5.69,.13,.05,.2,.19,.15,.32-.05,.13-.19,.2-.32,.15-17.62-6.57-38.45-4.41-54.34,5.64-.04,.03-.09,.04-.13,.04Z"></path><path d="M331.16,205.31s-.09-.01-.13-.03c-.12-.07-.16-.22-.09-.34,2.71-4.6,3.56-10.21,2.31-15.4-1.24-5.19-4.54-9.81-9.04-12.68-.12-.07-.15-.23-.08-.35,.08-.12,.23-.15,.35-.08,4.61,2.94,7.98,7.67,9.26,12.99,1.27,5.32,.41,11.06-2.37,15.77-.05,.08-.13,.12-.22,.12Z"></path><path d="M353.11,114.88c-.13,0-.24-.11-.25-.24-.14-3.4,.55-6.83,1.99-9.91,.06-.13,.21-.18,.33-.12,.13,.06,.18,.21,.12,.33-1.4,3.01-2.07,6.36-1.94,9.68,0,.14-.1,.25-.24,.26h0Z"></path><g style="opacity:.3;"><path d="M463.43,218.57c.48-.41,.96-.82,1.44-1.23,2.11,12.73-5.74,25.58-16.9,33.23-11.16,7.65-25.11,10.9-38.85,12.67-13.78,1.78-27.89,2.23-41.56-.18-13.67-2.41-26.93-7.83-37.05-16.7,0,0,30.18,12.99,71.38,10.09,41.2-2.91,61.53-37.88,61.53-37.88Z"></path></g><g style="opacity:.3;"><path d="M302.8,223.89c6.2-11.11,11.18-19.79,21.44-24.06s22.44-3.6,32.17,1.75c6.64-7.16,15.64-12.11,25.25-13.88s19.78-.37,28.54,3.95c-7.96-.11-15.97-.21-23.8,1.23-7.83,1.44-15.54,4.55-21.25,10.1-2.45,2.38-3.42,3.82-6.59,5.08-4.38,1.73-8.97,.67-13.46-.76-15.07-4.83-32.36,2.26-42.3,16.59"></path></g><g style="opacity:.3;"><path d="M294.9,166.92c-3.1-3.6-13.64-5.46-21.37-1.45-7.91,2.82-12.04,11.75-12.77,20.12-.54,6.25,.42,12.81,3.83,18.08,3.41,5.27,9.54,8.99,15.79,8.47,6.25-.52,12.04-5.95,11.96-12.23-.05-4.33-2.6-8.83-.81-12.77,1.24-2.74,4.25-4.28,5.8-6.85,2.45-4.07,2.34-7.82-2.43-13.37Z" style="fill:#fff;"></path></g><g style="opacity:.3;"><path d="M296.07,128.1c-1.52,.91-2.46,2.61-2.73,4.36s.08,3.55,.69,5.21c.74,2.03,1.9,3.97,3.68,5.19,1.77,1.22,4.23,1.59,6.11,.54,1.72-.96,2.69-2.95,2.79-4.92s-.55-3.9-1.46-5.65c-.93-1.78-2.17-3.46-3.91-4.47-1.73-1.01-4.01-1.24-5.72-.2" style="fill:#fff;"></path></g><g style="opacity:.3;"><path d="M386.37,217.32c-2.05-3.12-6.11-4.39-9.85-4.21-3.73,.18-7.33,5.34-10.9,6.44-12.07,3.72-16.36-3.28-35.87,.42-4.15,.75-8.39,1.53-12.05,3.62-3.66,2.08-6.71,5.76-6.87,9.97-.16,4.21,3.41,8.55,7.61,8.2,4.98-.41,7.5-6.17,11.67-8.93,3.8-2.52,8.82-2.37,13.22-1.17,4.4,1.2,8.51,3.32,12.92,4.51,7.13,1.92,14.94,1.26,21.65-1.83,3.27-1.51,6.38-3.67,8.23-6.76,1.85-3.09,2.22-7.24,.24-10.25Z" style="fill:#fff;"></path></g><circle cx="409.83" cy="215.22" r="7.7" transform="translate(-36.45 338.17) rotate(-43.11)" style="fill:#fff; opacity:.3;"></circle><g style="opacity:.3;"><path d="M530,258.52c-11.9,11.75-27.95,19.21-44.6,20.73,3.05,10.38-1.52,22-9.52,29.27-4.94,4.5-10.98,7.52-17.41,9.44,31.69-3.47,36.24-29.69,36.24-29.69,32.97-2.31,47.39-32.87,47.39-32.87,4.78-10.44,6.74-20.26,6.89-29.24-3.42,12.18-9.98,23.47-18.98,32.36Z"></path></g><g style="opacity:.3;"><path d="M433.05,141.96c-.03-2.98-2.37-5.12-4.98-6.06l-.06-.02c-4.92-1.73-10.51-.52-14.37,2.99-.76,.69-1.46,1.46-2.13,2.31-1.64,2.12-2.81,4.76-2.07,7.52,.22,.82,.64,1.6,1.25,2.2,2.5,2.48,6.03,1.21,8.59-.55,2.18-1.49,4.25-3.38,6.86-3.81,2.18-.36,4.59,.35,6.21-2.18,.46-.71,.7-1.56,.7-2.4Z" style="fill:#fff;"></path></g><g style="opacity:.3;"><path d="M534.63,213.09c3.53,11.45-.13,24.8-9.02,32.84-8.89,8.04-22.54,10.35-33.58,5.69,0,0,16.69-.91,26.89-9.95,12.43-11.01,15.71-28.58,15.71-28.58Z"></path></g><g style="opacity:.3;"><path d="M373.53,138.35c-.19,7.12-3.98,14.05-9.86,18.06-5.88,4.01-13.72,5-20.42,2.58l1.62,1.02c6.4,5,16.17,5.08,22.65,.19,6.48-4.9,9.07-14.32,6.01-21.84Z"></path></g></g><g><circle cx="540.61" cy="118.8" r="11.79" style="fill:#BA68C8;"></circle><circle cx="369.91" cy="310.14" r="6.87" style="fill:#BA68C8;"></circle><circle cx="282.51" cy="89.82" r="6.87" style="fill:#BA68C8;"></circle><path d="M521.59,108.07c0,3.26-2.64,5.9-5.89,5.9s-5.9-2.64-5.9-5.9,2.64-5.9,5.9-5.9,5.89,2.64,5.89,5.9Z" style="fill:#BA68C8;"></path><path d="M347.13,308.07c0,1.9-1.54,3.43-3.43,3.43s-3.43-1.54-3.43-3.43,1.54-3.43,3.43-3.43,3.43,1.54,3.43,3.43Z" style="fill:#BA68C8;"></path><path d="M298.05,75.23c0,1.9-1.54,3.43-3.43,3.43s-3.43-1.54-3.43-3.43,1.54-3.43,3.43-3.43,3.43,1.54,3.43,3.43Z" style="fill:#BA68C8;"></path><circle cx="529.76" cy="102.2" r="2.39" style="fill:#BA68C8;"></circle><path d="M352.04,321.36c0,.77-.62,1.39-1.39,1.39s-1.39-.62-1.39-1.39,.62-1.39,1.39-1.39,1.39,.62,1.39,1.39Z" style="fill:#BA68C8;"></path><path d="M281.98,73.45c0,1.15-.93,2.08-2.08,2.08s-2.08-.93-2.08-2.08,.93-2.08,2.08-2.08,2.08,.93,2.08,2.08Z" style="fill:#BA68C8;"></path><circle cx="282.51" cy="89.82" r="6.87" style="fill:#fff; opacity:.4;"></circle><path d="M298.05,75.23c0,1.9-1.54,3.43-3.43,3.43s-3.43-1.54-3.43-3.43,1.54-3.43,3.43-3.43,3.43,1.54,3.43,3.43Z" style="fill:#fff; opacity:.4;"></path><path d="M281.98,73.45c0,1.15-.93,2.08-2.08,2.08s-2.08-.93-2.08-2.08,.93-2.08,2.08-2.08,2.08,.93,2.08,2.08Z" style="fill:#fff; opacity:.4;"></path><circle cx="540.61" cy="118.8" r="11.79" style="fill:#fff; opacity:.4;"></circle><path d="M521.59,108.07c0,3.26-2.64,5.9-5.89,5.9s-5.9-2.64-5.9-5.9,2.64-5.9,5.9-5.9,5.89,2.64,5.89,5.9Z" style="fill:#fff; opacity:.4;"></path><circle cx="529.76" cy="102.2" r="2.39" style="fill:#fff; opacity:.4;"></circle><circle cx="369.91" cy="310.14" r="6.87" style="fill:#fff; opacity:.3;"></circle><path d="M347.13,308.07c0,1.9-1.54,3.43-3.43,3.43s-3.43-1.54-3.43-3.43,1.54-3.43,3.43-3.43,3.43,1.54,3.43,3.43Z" style="fill:#fff; opacity:.3;"></path><path d="M352.04,321.36c0,.77-.62,1.39-1.39,1.39s-1.39-.62-1.39-1.39,.62-1.39,1.39-1.39,1.39,.62,1.39,1.39Z" style="fill:#fff; opacity:.3;"></path></g></g></g></svg>
